<svg width="24" height="24" viewBox="0 0 24 24" fill="none" xmlns="http://www.w3.org/2000/svg">
<path d="M7.32957 20.9906C6.00268 20.4992 4.82189 19.6767 3.8982 18.6003C2.97451 17.5239 2.33827 16.229 2.04932 14.8373L0.0572214 5.41442C-0.230792 4.11138 0.597247 2.83247 1.89331 2.55497L13.6179 0.0574764L13.6539 0.0454113C14.9379 -0.207958 16.198 0.624541 16.462 1.90345L16.882 3.91834L22.1023 5.0404H22.1383C23.3983 5.32997 24.2144 6.60888 23.9504 7.88779L21.9583 17.3228C21.7283 18.4066 21.2883 19.4343 20.6633 20.3471C20.0382 21.2599 19.2404 22.04 18.3155 22.6428C17.3905 23.2455 16.3565 23.6592 15.2725 23.8601C14.1885 24.0611 13.0757 24.0454 11.9978 23.8139C10.1691 23.4301 8.52363 22.435 7.32957 20.9906ZM21.5983 7.39312L9.87369 4.88356L7.8816 14.3185V14.3547C7.19756 17.5882 9.27366 20.7734 12.5018 21.4611C15.73 22.1489 18.9221 20.0736 19.6062 16.8281L21.5983 7.39312ZM16.798 17.4314C16.4189 18.0766 15.8476 18.5857 15.1649 18.8867C14.4823 19.1877 13.7228 19.2652 12.9938 19.1084C12.2672 18.9521 11.6072 18.5716 11.106 18.0201C10.6047 17.4685 10.2872 16.7735 10.1977 16.0318L16.798 17.4314ZM7.76159 3.76149L2.39733 4.91975L4.38943 14.3427L4.40143 14.3789C4.58144 15.2355 4.94146 16.0077 5.43348 16.6713C5.31347 15.7422 5.33747 14.777 5.54148 13.8118L6.05751 11.3988C5.51748 11.3022 5.04946 11.0006 4.79745 10.5663C4.86945 9.83029 5.46948 9.17877 6.29752 8.98572H6.59754L7.53358 4.38888C7.58158 4.15964 7.65359 3.95454 7.76159 3.76149ZM15.634 12.2795C16.018 11.6401 16.834 11.3022 17.6621 11.4832C18.4901 11.6521 19.0901 12.2916 19.1981 13.0396C18.8021 13.667 17.9981 14.0048 17.158 13.8118C16.33 13.655 15.73 13.0155 15.634 12.2795ZM9.77769 11.0247C10.1617 10.3853 10.9657 10.0475 11.7938 10.2284C12.5978 10.3974 13.2339 11.0489 13.3299 11.7848C12.9338 12.4122 12.1298 12.7621 11.3018 12.6053C10.4737 12.4002 9.87369 11.7607 9.77769 11.0247ZM11.9618 2.86867L14.3139 3.37541L14.1219 2.41019L11.9618 2.86867Z" fill="#9C9C9C"/>
</svg>
