<svg width="24" height="25" viewBox="0 0 24 25" fill="none" xmlns="http://www.w3.org/2000/svg">
<path d="M10.2781 0.52516C10.6373 0.18791 11.1128 0 11.6071 0C12.1014 0 12.577 0.18791 12.9362 0.52516L22.307 9.32258C22.8874 9.86629 23.2143 10.6252 23.2143 11.4167V22.1181C23.2143 22.8824 22.9086 23.6155 22.3644 24.1559C21.8202 24.6964 21.0821 25 20.3125 25H16.4435C16.0622 25 15.6847 24.9254 15.3325 24.7804C14.9804 24.6355 14.6604 24.423 14.3909 24.1552C14.1214 23.8874 13.9077 23.5695 13.762 23.2196C13.6163 22.8698 13.5414 22.4948 13.5417 22.1162V17.3131C13.5417 17.0583 13.4398 16.814 13.2584 16.6338C13.077 16.4536 12.8309 16.3524 12.5744 16.3524H10.6399C10.3833 16.3524 10.1373 16.4536 9.95592 16.6338C9.77453 16.814 9.67262 17.0583 9.67262 17.3131V22.1162C9.67262 22.8805 9.3669 23.6135 8.82271 24.154C8.27852 24.6945 7.54043 24.9981 6.77083 24.9981H2.90179C2.13218 24.9981 1.3941 24.6945 0.849913 24.154C0.305723 23.6135 0 22.8805 0 22.1162V11.4148C0 10.6233 0.328869 9.86437 0.909226 9.32066L10.2781 0.521318V0.52516ZM11.6071 1.91999L2.23631 10.7193C2.14118 10.8089 2.06537 10.9167 2.01349 11.0363C1.96162 11.1559 1.93475 11.2846 1.93452 11.4148V22.1162C1.93452 22.371 2.03643 22.6153 2.21783 22.7955C2.39923 22.9756 2.64525 23.0768 2.90179 23.0768H6.77083C7.02737 23.0768 7.27339 22.9756 7.45479 22.7955C7.63619 22.6153 7.73809 22.371 7.73809 22.1162V17.3131C7.73809 16.5487 8.04382 15.8157 8.58801 15.2753C9.1322 14.7348 9.87028 14.4312 10.6399 14.4312H12.5744C13.344 14.4312 14.0821 14.7348 14.6263 15.2753C15.1705 15.8157 15.4762 16.5487 15.4762 17.3131V22.1162C15.4762 22.371 15.5781 22.6153 15.7595 22.7955C15.9409 22.9756 16.1869 23.0768 16.4435 23.0768H20.3125C20.569 23.0768 20.8151 22.9756 20.9965 22.7955C21.1779 22.6153 21.2798 22.371 21.2798 22.1162V11.4148C21.2798 11.2843 21.2531 11.1552 21.2012 11.0353C21.1493 10.9153 21.0733 10.8072 20.978 10.7174L11.6071 1.91999Z" fill="white"/>
</svg>
