<?xml version="1.0" standalone="no"?>
<!DOCTYPE svg PUBLIC "-//W3C//DTD SVG 20010904//EN"
 "http://www.w3.org/TR/2001/REC-SVG-20010904/DTD/svg10.dtd">
<svg version="1.0" xmlns="http://www.w3.org/2000/svg"
 width="24.000000pt" height="24.000000pt" viewBox="0 0 24.000000 24.000000"
 preserveAspectRatio="xMidYMid meet">

<g transform="translate(0.000000,24.000000) scale(0.100000,-0.100000)"
fill="#9C9C9C" stroke="none">
<path d="M19 184 c-18 -22 -18 -106 0 -128 8 -9 16 -14 19 -11 3 2 -1 11 -8
20 -16 20 -16 90 0 110 7 9 11 18 8 20 -3 3 -11 -2 -19 -11z"/>
<path d="M200 194 c0 -5 5 -15 11 -21 16 -16 15 -89 -1 -108 -7 -9 -11 -18 -8
-20 3 -3 11 2 19 11 20 25 18 109 -3 131 -10 9 -18 13 -18 7z"/>
<path d="M41 162 c-15 -29 -14 -65 4 -88 17 -22 19 -15 5 20 -6 17 -6 35 1 52
12 33 5 43 -10 16z"/>
<path d="M186 160 c4 -14 8 -32 8 -40 0 -8 -4 -26 -8 -40 -7 -24 -6 -24 8 -6
20 25 20 67 0 92 -14 18 -15 18 -8 -6z"/>
<path d="M64 136 c-3 -14 -2 -32 4 -42 7 -13 9 -7 9 25 0 47 -4 52 -13 17z"/>
<path d="M163 120 c0 -38 1 -42 10 -22 7 15 7 29 0 45 -9 19 -10 15 -10 -23z"/>
<path d="M100 134 c-11 -12 -10 -18 3 -32 16 -15 18 -15 34 0 13 14 14 20 3
32 -16 20 -24 20 -40 0z"/>
</g>
</svg>