<?xml version="1.0" standalone="no"?>
<!DOCTYPE svg PUBLIC "-//W3C//DTD SVG 20010904//EN"
 "http://www.w3.org/TR/2001/REC-SVG-20010904/DTD/svg10.dtd">
<svg version="1.0" xmlns="http://www.w3.org/2000/svg"
 width="24.000000pt" height="24.000000pt" viewBox="0 0 24.000000 24.000000"
 preserveAspectRatio="xMidYMid meet">

<g transform="translate(0.000000,24.000000) scale(0.100000,-0.100000)"
fill="#9C9C9C" stroke="none">
<path d="M90 120 l0 -110 30 0 30 0 0 110 0 110 -30 0 -30 0 0 -110z m40 0 c0
-53 -4 -90 -10 -90 -6 0 -10 37 -10 90 0 53 4 90 10 90 6 0 10 -37 10 -90z"/>
<path d="M170 95 l0 -85 30 0 30 0 0 85 0 85 -30 0 -30 0 0 -85z m40 0 c0 -37
-4 -65 -10 -65 -6 0 -10 28 -10 65 0 37 4 65 10 65 6 0 10 -28 10 -65z"/>
<path d="M10 65 c0 -54 0 -55 30 -55 30 0 30 1 30 55 0 54 0 55 -30 55 -30 0
-30 -1 -30 -55z m40 0 c0 -19 -4 -35 -10 -35 -5 0 -10 16 -10 35 0 19 5 35 10
35 6 0 10 -16 10 -35z"/>
</g>
</svg>
