<?xml version="1.0" standalone="no"?>
<!DOCTYPE svg PUBLIC "-//W3C//DTD SVG 20010904//EN"
 "http://www.w3.org/TR/2001/REC-SVG-20010904/DTD/svg10.dtd">
<svg version="1.0" xmlns="http://www.w3.org/2000/svg"
 width="24.000000pt" height="24.000000pt" viewBox="0 0 24.000000 24.000000"
 preserveAspectRatio="xMidYMid meet">

<g transform="translate(0.000000,24.000000) scale(0.100000,-0.100000)"
fill="#9C9C9C" stroke="none">
<path d="M103 212 c-14 -9 -5 -26 19 -35 10 -4 18 1 21 13 3 11 -1 21 -10 24
-18 7 -15 7 -30 -2z"/>
<path d="M190 180 c-13 -8 -1 -42 15 -42 8 0 25 22 25 33 0 12 -26 17 -40 9z"/>
<path d="M23 159 c-14 -14 -6 -39 12 -39 18 0 26 27 11 39 -9 7 -16 7 -23 0z"/>
<path d="M80 85 l0 -75 40 0 40 0 0 75 0 75 -40 0 -40 0 0 -75z"/>
<path d="M170 70 l0 -60 35 0 35 0 0 60 0 60 -35 0 -35 0 0 -60z"/>
<path d="M0 55 c0 -45 0 -45 35 -45 35 0 35 0 35 45 0 45 0 45 -35 45 -35 0
-35 0 -35 -45z"/>
</g>
</svg>
