<svg width="22" height="16" viewBox="0 0 22 16" fill="none" xmlns="http://www.w3.org/2000/svg">
<path d="M21.9217 0.635883C21.8705 0.511703 21.7953 0.398785 21.7006 0.303522L21.6979 0.302148L21.6965 0.299401C21.5035 0.107263 21.2422 -0.000424482 20.97 1.25757e-06H13.4163C13.1431 1.25757e-06 12.8811 0.108523 12.6879 0.301695C12.4948 0.494866 12.3862 0.756862 12.3862 1.03005C12.3862 1.30323 12.4948 1.56523 12.6879 1.7584C12.8811 1.95157 13.1431 2.06009 13.4163 2.06009H18.4841L11.6995 8.84466L8.99396 6.13907C8.80082 5.94618 8.53902 5.83783 8.26606 5.83783C7.9931 5.83783 7.73129 5.94618 7.53816 6.13907L0.327841 13.3494C0.22664 13.4437 0.145469 13.5574 0.0891708 13.6838C0.0328727 13.8101 0.00260053 13.9465 0.000160305 14.0848C-0.00227992 14.2231 0.0231615 14.3605 0.0749674 14.4888C0.126773 14.617 0.203882 14.7335 0.301693 14.8313C0.399505 14.9291 0.516015 15.0063 0.644274 15.0581C0.772533 15.1099 0.909912 15.1353 1.04822 15.1329C1.18652 15.1304 1.32292 15.1002 1.44927 15.0439C1.57562 14.9876 1.68934 14.9064 1.78364 14.8052L8.26606 8.32277L10.9716 11.0284C11.1648 11.2213 11.4266 11.3296 11.6995 11.3296C11.9725 11.3296 12.2343 11.2213 12.4274 11.0284L19.9399 3.51589V8.58372C19.9399 8.8569 20.0484 9.1189 20.2416 9.31207C20.4348 9.50524 20.6968 9.61376 20.97 9.61376C21.2431 9.61376 21.5051 9.50524 21.6983 9.31207C21.8915 9.1189 22 8.8569 22 8.58372V1.03005C22.0001 0.894783 21.9735 0.760825 21.9217 0.635883Z" fill="#9C9C9C"/>
</svg>
