<svg width="27" height="25" viewBox="0 0 27 25" fill="none" xmlns="http://www.w3.org/2000/svg">
<path d="M11.5484 0.938188C12.1657 -0.312729 13.9493 -0.312729 14.5654 0.938188L17.6892 7.26472L24.6714 8.28008C26.0523 8.48083 26.6023 10.1762 25.6044 11.1498L20.5508 16.0745L21.7437 23.0288C21.9804 24.4039 20.5369 25.4518 19.3034 24.8031L13.0557 21.5191L6.8116 24.8031C5.57693 25.4518 4.13454 24.4039 4.37011 23.0288L5.563 16.0745L0.509435 11.1498C-0.488514 10.1762 0.0626791 8.48083 1.4424 8.28008L8.42457 7.26472L11.5472 0.938188H11.5484ZM13.0569 1.8143L9.97371 8.06308C9.85292 8.3077 9.67446 8.51928 9.45371 8.67959C9.23296 8.8399 8.97654 8.94412 8.70654 8.98328L1.81025 9.98588L6.8 14.8491C7.19686 15.2367 7.37788 15.7925 7.28389 16.3391L6.10607 23.2075L12.2748 19.9642C12.5163 19.8372 12.7852 19.7708 13.0581 19.7708C13.331 19.7708 13.5998 19.8372 13.8413 19.9642L20.0089 23.2075L18.8311 16.3379C18.7371 15.7925 18.9181 15.2356 19.315 14.8491L24.3047 9.98588L17.4084 8.98328C17.1384 8.94412 16.882 8.8399 16.6613 8.67959C16.4405 8.51928 16.2621 8.3077 16.1413 8.06308L13.0581 1.8143H13.0569Z" fill="white"/>
</svg>
