<svg width="25" height="25" viewBox="0 0 25 25" fill="none" xmlns="http://www.w3.org/2000/svg">
<path d="M15.2261 16.699C13.3541 18.1945 10.9806 18.9165 8.59287 18.7167C6.20518 18.5169 3.98463 17.4104 2.38726 15.6245C0.789891 13.8386 -0.0630414 11.5089 0.00363408 9.1138C0.0703095 6.7187 1.05153 4.44003 2.74578 2.74578C4.44003 1.05153 6.7187 0.0703095 9.1138 0.00363408C11.5089 -0.0630414 13.8386 0.789891 15.6245 2.38726C17.4104 3.98463 18.5169 6.20518 18.7167 8.59287C18.9165 10.9806 18.1945 13.3541 16.699 15.2261L24.6945 23.2196C24.8901 23.4152 25 23.6804 25 23.9571C25 24.2337 24.8901 24.4989 24.6945 24.6945C24.4989 24.8901 24.2337 25 23.9571 25C23.6804 25 23.4152 24.8901 23.2196 24.6945L15.2282 16.699H15.2261ZM16.6656 9.37423C16.6656 8.41671 16.477 7.46856 16.1106 6.58392C15.7442 5.69929 15.2071 4.89549 14.53 4.21842C13.853 3.54135 13.0492 3.00427 12.1645 2.63784C11.2799 2.27141 10.3317 2.08281 9.37423 2.08281C8.41671 2.08281 7.46856 2.27141 6.58392 2.63784C5.69929 3.00427 4.89549 3.54135 4.21842 4.21842C3.54135 4.89549 3.00427 5.69929 2.63784 6.58392C2.27141 7.46856 2.08281 8.41671 2.08281 9.37423C2.08281 11.308 2.85101 13.1626 4.21842 14.53C5.58583 15.8974 7.44042 16.6656 9.37423 16.6656C11.308 16.6656 13.1626 15.8974 14.53 14.53C15.8974 13.1626 16.6656 11.308 16.6656 9.37423Z" fill="white"/>
</svg>
